<?xml version="1.0" encoding="UTF-8" standalone="no"?>
<svg
   width="128"
   height="128"
   version="1.1"
   id="svg6"
   sodipodi:docname="icon.svg"
   xml:space="preserve"
   inkscape:version="1.4.2 (ebf0e940d0, 2025-05-08)"
   xmlns:inkscape="http://www.inkscape.org/namespaces/inkscape"
   xmlns:sodipodi="http://sodipodi.sourceforge.net/DTD/sodipodi-0.dtd"
   xmlns="http://www.w3.org/2000/svg"
   xmlns:svg="http://www.w3.org/2000/svg"><defs
     id="defs6">
        
        
    </defs><sodipodi:namedview
     id="namedview6"
     pagecolor="#ffffff"
     bordercolor="#000000"
     borderopacity="0.25"
     inkscape:showpageshadow="2"
     inkscape:pageopacity="0.0"
     inkscape:pagecheckerboard="0"
     inkscape:deskcolor="#d1d1d1"
     inkscape:zoom="2.2621893"
     inkscape:cx="69.401796"
     inkscape:cy="61.444902"
     inkscape:window-width="958"
     inkscape:window-height="1104"
     inkscape:window-x="853"
     inkscape:window-y="299"
     inkscape:window-maximized="0"
     inkscape:current-layer="svg6" /><path
     id="rect8"
     style="fill:#ffffff;stroke:none"
     d="m 15.692807,1.7689355 c -4.775462,0 -8.6191396,5.323369 -8.6191406,11.9355465 v 0.882813 c 0,6.612178 3.8436786,11.935547 8.6191406,11.935547 3.523343,0 6.539245,-2.897136 7.878906,-7.072266 h 80.166017 c 1.33972,4.174919 4.35567,7.072266 7.8789,7.072266 4.77546,0 8.6211,-5.323369 8.6211,-11.935547 v -0.882813 c 0,-6.6121775 -3.84564,-11.9355465 -8.6211,-11.9355465 -3.26872,0 -6.10046,2.493247 -7.5625,6.1875 H 23.255307 c -1.461983,-3.694505 -4.293648,-6.187499 -7.5625,-6.1875 z" /><g
     transform="matrix(1.6601983,0,0,1.6601983,-340.77335,621.99058)"
     id="g3"
     style="clip-rule:evenodd;fill-rule:evenodd;stroke-linejoin:round;stroke-miterlimit:2;fill:#ffffff">
            <path
   d="m 243,-334 c 0.106,-1.89 1.03,-3.56 2.43,-4.74 1.37,-1.16 3.21,-1.87 5.23,-1.87 2.01,0 3.85,0.709 5.22,1.87 1.4,1.18 2.32,2.85 2.43,4.74 0.106,1.94 -0.675,3.75 -2.04,5.09 -1.4,1.36 -3.38,2.22 -5.61,2.22 -2.23,0 -4.22,-0.854 -5.61,-2.22 -1.37,-1.34 -2.15,-3.14 -2.04,-5.08 z"
   style="fill:#ffffff;fill-rule:nonzero"
   id="path2-7" />
            <path
   d="m 231,-330 c 0.013,0.74 0.249,2.18 0.603,3.3 0.744,2.38 2.01,4.58 3.76,6.51 1.8,1.99 4.02,3.59 6.58,4.73 2.69,1.19 5.61,1.8 8.64,1.8 3.03,-0.004 5.95,-0.624 8.64,-1.83 2.56,-1.15 4.78,-2.75 6.58,-4.75 1.76,-1.95 3.02,-4.15 3.76,-6.53 0.375,-1.2 0.612,-2.42 0.707,-3.64 0.093,-1.2 0.054,-2.41 -0.117,-3.62 -0.334,-2.35 -1.15,-4.56 -2.4,-6.56 -1.14,-1.85 -2.62,-3.46 -4.38,-4.82 l 0.004,-0.003 -17.7,-13.6 c -0.016,-0.012 -0.029,-0.025 -0.046,-0.036 -1.16,-0.892 -3.12,-0.889 -4.39,0.005 -1.29,0.904 -1.44,2.4 -0.29,3.34 l -0.005,0.005 7.39,6.01 -22.5,0.024 h -0.03 c -1.86,0.002 -3.65,1.22 -4,2.77 -0.364,1.57 0.9,2.88 2.84,2.88 l -0.003,0.007 11.4,-0.022 -20.4,15.6 c -0.026,0.019 -0.054,0.039 -0.078,0.058 -1.92,1.47 -2.54,3.92 -1.33,5.46 1.23,1.57 3.84,1.58 5.78,0.009 l 11.1,-9.1 c 0,0 -0.162,1.23 -0.149,1.96 z m 28.6,4.11 c -2.29,2.33 -5.5,3.66 -8.96,3.66 -3.47,0.006 -6.68,-1.3 -8.97,-3.63 -1.12,-1.14 -1.94,-2.44 -2.45,-3.83 -0.497,-1.37 -0.69,-2.82 -0.562,-4.28 0.121,-1.43 0.547,-2.8 1.23,-4.03 0.668,-1.21 1.59,-2.31 2.72,-3.24 2.23,-1.81 5.06,-2.8 8.02,-2.8 2.97,-0.004 5.8,0.969 8.03,2.78 1.13,0.924 2.05,2.02 2.72,3.23 0.683,1.23 1.11,2.59 1.23,4.03 0.126,1.46 -0.067,2.91 -0.564,4.28 -0.508,1.4 -1.33,2.7 -2.45,3.84 z"
   style="fill:#ffffff;fill-rule:nonzero"
   id="path3-5" />
        </g><path
     id="path10"
     style="fill:#ffffff;stroke:none"
     d="m 15.692807,101.67216 c -4.775462,0 -8.6191396,5.32337 -8.6191406,11.93555 v 0.88281 c 0,6.61218 3.8436786,11.93555 8.6191406,11.93555 3.523343,0 6.539245,-2.89714 7.878906,-7.07227 h 80.166017 c 1.33972,4.17492 4.35567,7.07227 7.8789,7.07227 4.77546,0 8.6211,-5.32337 8.6211,-11.93555 v -0.88281 c 0,-6.61218 -3.84564,-11.93555 -8.6211,-11.93555 -3.26872,0 -6.10046,2.49325 -7.5625,6.1875 H 23.255307 c -1.461983,-3.69451 -4.293648,-6.1875 -7.5625,-6.1875 z" /></svg>
